<?xml version="1.0" standalone="no"?>
<!DOCTYPE svg PUBLIC "-//W3C//DTD SVG 20010904//EN"
 "http://www.w3.org/TR/2001/REC-SVG-20010904/DTD/svg10.dtd">
<svg version="1.0" xmlns="http://www.w3.org/2000/svg"
 width="652.000000pt" height="366.000000pt" viewBox="0 0 652.000000 366.000000"
 preserveAspectRatio="xMidYMid meet">
<metadata>
Created by potrace 1.16, written by Peter Selinger 2001-2019
</metadata>
<g transform="translate(0.000000,366.000000) scale(0.100000,-0.100000)"
fill="#000000" stroke="none">
<path d="M0 2269 c0 -1295 1 -1391 17 -1385 98 38 163 26 187 -36 21 -50 14
-73 -27 -95 -34 -18 -130 -23 -160 -9 -16 8 -17 -13 -17 -368 l0 -376 346 0
346 0 -7 38 c-4 20 -13 91 -20 157 -8 66 -18 136 -24 155 -6 19 -11 55 -11 80
0 42 3 47 32 59 18 7 41 14 51 16 18 2 40 25 32 33 -11 12 -87 -23 -111 -50
l-26 -33 6 55 c4 30 11 69 16 85 5 17 14 86 20 154 6 68 13 127 15 132 3 4 0
11 -6 14 -6 4 -35 -10 -65 -30 -57 -40 -65 -48 -36 -39 16 5 16 5 -1 -6 -9 -6
-21 -9 -25 -6 -4 2 -14 0 -22 -6 -13 -8 -12 -9 2 -5 31 10 27 -6 -13 -52 -35
-40 -40 -50 -34 -79 4 -23 3 -32 -4 -27 -6 3 -11 21 -11 39 0 18 -10 46 -23
64 -14 19 -23 43 -21 59 1 16 2 36 3 46 1 14 6 17 21 12 12 -4 35 3 62 19 46
28 46 32 1 16 l-28 -10 24 20 c13 12 31 25 40 30 9 5 13 11 9 15 -7 8 -90 -42
-101 -61 -14 -24 -34 -16 -32 11 2 14 0 23 -4 20 -17 -10 -118 256 -202 530
-61 198 -64 218 -51 297 7 39 21 91 32 114 28 66 137 203 165 210 61 15 187
-84 218 -171 24 -68 22 -74 -24 -123 -32 -33 -44 -40 -54 -32 -11 9 -12 6 -7
-12 5 -20 3 -21 -10 -10 -14 11 -16 10 -11 -7 3 -12 1 -21 -6 -21 -13 0 -7
-81 9 -111 6 -11 19 -87 30 -168 10 -81 23 -156 29 -167 5 -10 14 -39 19 -64
21 -99 96 -250 124 -250 14 0 53 169 62 271 3 31 12 74 19 95 23 65 30 258 13
339 -12 60 -24 149 -52 393 -3 23 -9 40 -14 37 -4 -3 -18 10 -29 28 -33 54
-136 147 -171 153 -25 6 -29 10 -24 28 6 20 51 66 67 66 4 0 7 9 7 20 0 25 25
66 61 100 14 14 28 30 30 35 10 24 138 104 284 178 104 52 151 69 235 87 167
34 180 39 192 66 6 13 18 24 26 24 13 0 12 3 -2 19 -12 13 -15 27 -10 46 9 34
26 41 75 26 30 -9 49 -9 74 -1 19 6 57 12 84 14 30 1 57 9 69 19 10 9 21 15
24 12 3 -3 20 12 37 33 17 22 42 43 55 46 14 3 26 16 30 31 4 14 13 25 21 25
9 0 12 6 9 15 -8 19 26 21 45 3 7 -7 12 -8 11 -3 -2 6 -2 19 -1 30 2 20 2 20
16 1 8 -11 12 -29 9 -40 -3 -12 -6 -61 -7 -111 -2 -76 -6 -99 -30 -145 -15
-30 -25 -44 -23 -31 l5 23 -25 -23 c-32 -30 -37 -21 -18 32 14 39 15 96 2 148
-2 7 2 15 9 18 6 2 13 -4 16 -14 4 -17 4 -17 12 1 5 11 3 21 -5 26 -7 4 -10
15 -7 24 9 24 -1 20 -48 -19 -24 -19 -46 -46 -49 -60 -4 -17 -12 -25 -24 -23
-14 3 -17 -6 -17 -50 -1 -59 16 -92 46 -92 18 0 19 -5 13 -67 l-6 -68 81 -55
c45 -30 118 -78 164 -107 45 -28 94 -61 109 -73 15 -12 33 -18 39 -14 8 4 9 3
5 -5 -4 -6 2 -25 14 -41 29 -41 70 -144 70 -175 0 -17 4 -24 12 -19 7 4 8 3 4
-5 -10 -15 21 -207 39 -242 25 -47 18 -61 -14 -28 -24 23 -38 29 -75 29 -93 0
-209 -64 -236 -131 l-13 -31 -14 39 c-8 21 -18 49 -22 63 -8 27 -10 13 -31
-175 -5 -44 -9 -82 -10 -85 0 -3 -5 2 -10 10 -7 12 -12 12 -21 3 -10 -10 -10
-20 3 -45 12 -27 13 -47 5 -111 -8 -69 -7 -87 12 -150 26 -91 38 -192 22 -201
-17 -11 -13 -41 8 -60 10 -10 22 -33 25 -52 5 -23 12 -34 24 -34 17 0 149 90
222 151 22 19 55 46 73 61 l33 27 37 -42 c37 -42 49 -74 23 -64 -7 3 -36 -16
-65 -44 -28 -28 -55 -47 -61 -44 -5 3 -10 -1 -10 -9 0 -19 -16 -21 -23 -3 -4
9 -6 9 -6 -1 -1 -7 6 -24 15 -37 9 -13 13 -29 9 -35 -4 -6 -36 -29 -71 -51
-35 -23 -64 -47 -64 -54 0 -7 -12 -16 -26 -19 -20 -5 -33 -1 -49 14 -16 15
-25 18 -30 10 -4 -7 2 -18 14 -27 21 -14 21 -16 4 -28 -15 -11 -20 -10 -34 7
-17 19 -17 19 -24 -2 -4 -12 -2 -27 4 -33 8 -8 11 -6 12 9 1 10 5 1 9 -21 5
-22 6 -51 3 -65 -5 -24 -4 -24 25 8 17 17 35 32 41 32 17 0 33 -40 27 -66 -6
-21 -55 -58 -81 -59 -5 0 -11 -14 -13 -31 -3 -29 -7 -32 -45 -37 -23 -3 -62
-3 -87 1 -66 10 -914 5 -990 -6 -54 -8 -33 -9 115 -8 197 1 207 -2 246 -61 14
-20 15 -29 6 -35 -9 -6 -8 -11 3 -19 12 -8 8 -9 -15 -6 -16 2 -39 8 -49 12
-14 6 -17 5 -12 -3 9 -15 1 -15 -26 -1 -11 6 -22 8 -25 6 -9 -9 50 -34 97 -42
70 -11 70 -19 0 -26 -78 -8 -182 -37 -136 -38 15 -1 55 6 88 15 75 19 158 7
158 -23 0 -9 6 -24 13 -32 26 -30 47 -102 54 -179 4 -44 9 -68 13 -57 7 21 14
13 24 -27 5 -23 12 -28 36 -28 41 0 39 25 -5 108 -40 74 -43 109 -7 104 14 -2
22 2 22 12 0 11 -7 14 -27 10 -34 -6 -65 11 -45 24 10 7 7 13 -13 26 -22 14
-25 22 -20 47 7 29 1 34 -33 30 -15 -2 -16 43 -1 72 7 12 30 42 53 67 41 45
41 45 116 48 225 7 275 3 309 -29 24 -23 32 -24 25 -4 -7 18 33 29 79 22 17
-2 41 -1 52 3 19 7 20 3 21 -96 1 -59 -2 -101 -7 -98 -5 3 -9 15 -9 27 0 18
-2 19 -10 7 -15 -24 -12 -70 5 -70 8 0 15 -5 15 -11 0 -5 4 -7 10 -4 9 6 11
-16 16 -189 1 -47 3 -50 35 -61 19 -7 35 -19 37 -28 3 -16 57 -17 678 -17
l674 0 0 48 c0 26 7 73 14 106 9 39 11 69 5 90 -5 17 -9 48 -9 70 0 21 -7 74
-16 117 -12 60 -15 125 -12 291 4 207 5 216 36 321 21 68 32 125 31 155 -1 26
2 56 6 67 8 19 7 19 -11 5 -10 -8 -32 -31 -49 -50 -16 -19 -75 -81 -129 -137
-55 -57 -107 -120 -116 -141 -9 -21 -23 -44 -31 -52 -35 -37 -79 -99 -79 -113
0 -11 15 -17 50 -22 58 -8 120 -57 120 -94 0 -32 -50 -77 -99 -91 -50 -13 -57
-26 -36 -66 22 -42 19 -71 -10 -96 -14 -12 -25 -25 -25 -29 0 -5 23 -16 51
-26 75 -26 109 -61 109 -111 0 -34 -5 -44 -32 -64 -31 -22 -41 -23 -170 -22
-221 3 -306 25 -340 87 -12 24 -21 368 -11 431 4 29 13 40 39 52 19 9 37 20
40 25 9 15 -8 10 -27 -7 -20 -18 -39 -11 -39 15 0 19 131 111 157 111 13 0 18
32 7 42 -3 4 -37 -7 -76 -23 -82 -34 -108 -36 -108 -11 0 17 59 59 117 81 40
16 59 38 68 79 3 17 11 32 16 32 13 0 -11 37 -25 37 -16 1 -106 24 -138 36
-28 9 -38 40 -18 52 6 4 34 -2 63 -11 28 -10 81 -19 117 -20 36 -1 92 -6 125
-12 51 -8 63 -7 79 7 37 32 157 187 175 226 57 123 80 174 96 210 10 22 33 62
52 88 l34 48 -16 105 c-17 116 -29 144 -62 144 -25 0 -23 -24 3 -34 21 -8 17
-30 -12 -59 -18 -18 -31 -24 -42 -18 -47 22 -105 53 -180 95 -65 38 -82 51
-77 65 6 21 -19 48 -30 32 -4 -7 -17 -5 -37 5 -18 9 -67 19 -113 22 -66 4 -87
1 -108 -12 -23 -16 -28 -16 -54 -2 -17 8 -37 32 -47 55 -38 83 5 177 99 215
21 9 42 22 46 28 4 6 35 13 69 15 42 3 60 1 55 -6 -3 -6 -1 -11 4 -11 6 0 18
-17 26 -37 14 -33 17 -35 31 -21 13 13 14 19 2 39 -7 13 -17 27 -23 31 -6 5
-6 8 2 8 6 0 30 18 52 39 47 46 174 111 214 111 34 0 64 -15 97 -48 14 -14 20
-23 14 -19 -6 3 -11 0 -11 -7 0 -8 26 1 71 24 101 52 185 100 192 111 3 5 13
9 23 9 10 0 30 9 45 21 15 11 53 26 86 32 50 10 61 16 70 38 6 15 24 39 40 54
16 16 26 33 23 39 -4 6 4 2 16 -9 16 -14 20 -26 16 -43 -5 -21 -3 -23 17 -16
13 3 26 12 30 18 5 7 8 7 8 -3 0 -9 6 -7 18 7 16 18 24 19 122 12 104 -7 105
-7 142 -44 21 -21 43 -36 50 -34 7 2 23 24 34 48 21 43 51 73 64 65 13 -8 14
58 4 254 -5 98 -3 132 5 127 6 -4 11 -2 11 3 0 6 -6 11 -12 11 -7 0 -2 7 10
16 23 16 69 101 60 110 -3 3 -18 -10 -33 -27 -23 -28 -29 -31 -46 -21 -16 10
-19 9 -19 -3 0 -8 -4 -15 -10 -15 -5 0 -7 6 -4 13 3 8 -14 24 -46 41 -36 20
-50 33 -50 49 0 16 -3 19 -9 8 -5 -7 -14 -10 -20 -7 -6 4 -11 2 -11 -3 0 -6 5
-11 12 -11 6 0 8 -3 5 -6 -8 -9 -38 16 -32 26 9 14 -20 30 -35 20 -11 -7 -12
-10 -2 -10 7 0 10 -5 7 -11 -4 -6 -13 -8 -21 -5 -7 3 -16 1 -19 -5 -4 -5 -12
-3 -21 5 -20 21 -18 25 14 23 18 -1 27 3 28 13 3 33 4 35 12 25 13 -18 72 -44
86 -39 8 3 17 0 21 -5 15 -25 23 2 9 34 -14 33 -6 54 16 40 6 -3 10 3 10 14 0
11 9 25 21 32 19 9 20 17 16 72 -4 53 -2 63 17 78 20 18 -65 18 -2151 19
l-2173 0 0 -1391z m340 198 c35 -3 48 -58 32 -136 -7 -31 -12 -76 -12 -99 0
-34 -6 -49 -30 -72 -17 -17 -28 -30 -25 -30 4 0 3 -5 0 -10 -4 -6 -12 -4 -21
5 -9 8 -21 15 -27 15 -7 0 -6 -4 3 -10 10 -7 11 -10 2 -10 -14 0 -32 39 -57
125 -9 33 -23 72 -31 87 -18 34 -18 72 1 108 21 40 24 40 165 27z m2588 -599
c-10 -6 -9 -8 4 -8 9 0 30 -11 45 -25 24 -21 26 -26 13 -34 -11 -8 -17 -5 -22
8 -11 31 -28 35 -28 7 0 -24 -11 -38 -54 -73 -19 -16 -36 -17 -36 -2 0 6 -7 3
-16 -5 -16 -17 -10 -41 8 -30 13 8 2 -13 -20 -39 -12 -13 -17 -15 -24 -5 -12
20 -9 28 8 21 11 -4 15 -2 12 7 -8 26 -23 20 -42 -15 -11 -19 -23 -35 -28 -35
-5 0 -8 -8 -6 -18 2 -11 -1 -18 -5 -18 -9 1 -46 -71 -47 -89 0 -6 -9 -16 -20
-23 -11 -6 -17 -18 -14 -25 2 -7 -14 -33 -36 -57 -27 -30 -38 -49 -34 -62 3
-12 -1 -20 -13 -25 -34 -12 -46 -60 -20 -82 8 -6 19 -29 26 -51 7 -22 16 -38
20 -36 4 3 6 -6 3 -19 -2 -13 1 -39 7 -56 9 -25 8 -34 -1 -41 -20 -12 -31 -9
-24 8 4 12 1 14 -14 9 -22 -7 -26 5 -9 22 9 9 6 10 -10 6 -16 -4 -20 -2 -16
10 4 8 -5 26 -20 41 -14 14 -23 31 -20 37 4 5 1 16 -5 24 -15 18 -6 45 14 45
34 0 -10 85 -87 166 l-65 69 -67 -18 c-69 -18 -104 -40 -85 -52 6 -4 8 -11 4
-16 -3 -5 4 -24 15 -43 12 -18 21 -37 21 -42 0 -5 -23 26 -50 69 -28 43 -50
80 -50 83 0 3 -31 70 -70 150 -38 80 -70 157 -70 171 0 60 121 133 220 133 59
0 71 -13 115 -123 18 -48 44 -101 58 -119 24 -32 47 -70 82 -137 l17 -33 65
66 c36 37 86 81 112 98 68 46 106 84 173 175 l61 83 19 -22 c14 -17 16 -23 6
-30z m308 -106 c-4 -10 1 -27 9 -38 8 -10 15 -34 15 -51 0 -28 -5 -35 -37 -49
-42 -18 -96 -21 -101 -5 -2 5 -10 7 -19 4 -13 -5 -15 -2 -11 15 5 16 2 22 -10
22 -11 1 5 21 43 55 41 38 65 53 77 49 10 -3 18 -1 18 5 0 6 5 11 11 11 6 0 8
-8 5 -18z m-810 -981 c48 -29 67 -79 59 -159 -12 -137 -17 -162 -37 -187 -19
-24 -21 -24 -55 -10 -19 8 -43 25 -54 39 -10 13 -41 33 -69 45 -82 35 -109
101 -70 168 67 111 151 150 226 104z"/>
<path d="M4704 3608 c3 -41 8 -56 28 -73 51 -44 62 -70 49 -121 -7 -26 -9 -49
-6 -52 3 -3 5 0 5 6 0 6 7 9 15 6 10 -4 15 0 15 16 0 11 4 19 9 16 5 -4 12 0
14 6 3 7 6 -14 6 -48 1 -67 -14 -98 -45 -92 -10 2 -24 -3 -31 -12 -8 -10 -12
-11 -13 -3 0 7 -7 10 -15 7 -8 -4 -15 -1 -15 5 0 6 -13 11 -29 11 -17 0 -43
11 -61 26 -36 31 -49 26 -25 -10 18 -27 13 -46 -11 -46 -8 0 -14 -4 -14 -10 0
-5 -21 -10 -47 -10 -50 0 -50 18 -1 22 15 1 25 4 23 7 -3 2 4 10 15 18 11 8
20 18 20 24 0 13 -143 4 -148 -10 -2 -6 1 -11 8 -11 6 0 9 -4 5 -9 -3 -5 2
-16 10 -24 13 -14 10 -16 -25 -22 -36 -6 -67 -25 -41 -25 6 0 11 -10 11 -23 0
-13 15 -36 35 -55 36 -32 55 -40 55 -23 0 11 56 26 87 22 13 -1 26 6 32 18 6
11 17 18 24 15 9 -3 13 2 13 15 -1 11 4 20 9 21 6 0 11 -21 13 -47 2 -33 6
-43 12 -33 8 13 10 12 10 -2 0 -12 5 -15 18 -11 15 6 16 5 2 -13 -37 -49 -88
-97 -117 -110 -18 -8 -57 -14 -87 -14 -40 0 -55 -4 -60 -16 -9 -24 -7 -28 7
-15 17 14 27 4 27 -27 0 -17 -8 -27 -30 -35 -21 -8 -30 -18 -30 -34 0 -12 -9
-31 -21 -42 l-21 -19 21 -12 c12 -6 36 -9 54 -7 19 2 39 -2 49 -10 26 -23 102
-8 119 23 7 14 20 24 28 23 28 -2 38 1 59 20 21 18 31 48 13 37 -5 -4 -7 4 -3
16 4 17 2 20 -11 15 -9 -3 -18 1 -21 10 -4 8 -12 13 -20 10 -9 -4 -12 2 -8 19
5 26 32 34 32 10 0 -8 5 -18 10 -21 7 -4 8 3 4 21 -5 17 -3 25 3 21 12 -8 23
25 22 63 0 22 -1 23 -8 6 -5 -13 -10 -16 -15 -8 -4 6 4 21 19 34 14 12 24 27
21 33 -2 6 0 28 4 50 l8 40 1 -35 c2 -43 9 -55 40 -65 48 -15 378 -179 431
-215 30 -20 76 -47 102 -59 76 -36 114 -105 72 -129 -19 -10 -11 -32 12 -32 9
0 14 11 14 33 l1 32 19 -35 c38 -69 61 -144 80 -263 11 -67 24 -137 29 -155
11 -39 9 -41 -119 -101 -115 -54 -171 -68 -205 -53 -27 13 -27 9 -5 118 9 41
20 60 49 87 53 47 64 69 16 29 -47 -38 -72 -43 -32 -7 27 26 33 36 20 34 -22
-4 -33 3 -33 17 0 13 -5 11 -22 -8 -13 -14 -28 -34 -34 -44 -14 -24 -46 -31
-180 -40 -118 -7 -128 -12 -101 -48 12 -16 26 -17 118 -14 57 2 113 8 123 13
15 6 11 -2 -13 -32 -29 -36 -39 -41 -98 -51 -36 -6 -68 -13 -70 -16 -3 -3 -3
-17 1 -31 5 -20 13 -25 36 -25 32 0 40 -14 14 -24 -8 -3 -12 -11 -9 -17 4 -6
28 11 59 43 79 81 92 91 115 83 19 -6 19 -8 4 -43 -8 -20 -21 -44 -29 -53 -20
-23 -17 -35 4 -16 22 20 32 13 32 -21 0 -25 -35 -92 -48 -92 -4 0 -13 -9 -20
-20 -12 -20 -12 -21 13 -4 29 19 28 22 14 -83 -8 -59 -8 -87 0 -102 19 -36
110 -140 133 -152 19 -10 25 -7 54 27 18 22 33 44 34 51 0 7 7 10 15 7 20 -8
20 36 0 102 -19 61 -19 69 0 54 8 -6 18 -9 24 -6 5 3 11 2 13 -3 1 -5 14 -3
28 5 24 15 24 15 2 11 -46 -10 -99 27 -93 66 1 4 -4 7 -11 7 -6 0 -8 3 -5 7 4
3 2 12 -4 19 -5 7 -11 32 -12 55 l-2 43 75 32 c41 18 84 33 94 33 11 1 28 8
38 17 14 14 18 14 22 3 2 -8 10 -32 17 -54 16 -53 55 -132 87 -174 21 -28 27
-31 36 -19 13 17 54 29 61 18 9 -14 -14 -60 -27 -56 -7 1 -10 1 -7 -1 4 -2 5
-13 2 -23 -7 -27 79 -197 88 -173 4 10 15 45 25 78 22 68 67 108 119 104 16
-1 47 1 68 6 27 5 44 3 61 -8 22 -15 23 -20 15 -58 -14 -62 -36 -108 -69 -145
-16 -19 -30 -41 -30 -49 0 -17 27 -45 46 -46 89 -4 127 0 141 14 11 11 17 41
20 104 3 84 25 187 41 197 4 2 32 -5 62 -16 30 -11 85 -22 123 -24 l67 -3 0
414 c0 262 -4 416 -10 420 -5 3 -33 8 -62 10 -59 4 -136 37 -145 63 -22 66
-58 124 -102 164 -54 50 -62 77 -41 132 14 37 50 42 126 17 96 -31 111 -29
177 32 l57 52 0 293 0 292 -909 0 -909 0 2 -52z m1247 -1158 c40 -22 50 -62
37 -147 -6 -43 -11 -87 -11 -98 -1 -41 -33 -45 -74 -11 -24 20 -30 34 -32 73
-1 26 -6 65 -10 85 -11 50 -4 82 22 95 29 14 45 15 68 3z"/>
<path d="M4550 2554 c0 -1 21 -16 47 -34 l48 -31 201 2 c111 0 206 4 212 8 7
4 1 16 -17 31 -29 23 -33 23 -260 25 -127 1 -231 0 -231 -1z"/>
<path d="M4797 2411 l-27 -6 30 -20 c16 -11 30 -23 30 -27 0 -5 81 -8 180 -8
194 0 205 3 157 48 -22 21 -32 22 -183 21 -87 -1 -171 -4 -187 -8z"/>
<path d="M1156 2211 c-3 -5 -14 -7 -24 -4 -24 6 -94 -60 -113 -107 -9 -23 -14
-74 -14 -147 0 -102 2 -114 24 -144 l24 -32 -19 -51 c-26 -71 -27 -256 -1
-304 10 -19 22 -30 29 -26 7 4 8 3 4 -4 -18 -30 147 -82 213 -67 17 4 39 17
50 30 10 14 21 21 25 18 3 -3 6 -1 6 5 0 7 -8 12 -17 13 -11 0 -13 3 -5 6 6 2
9 10 6 16 -4 7 5 -1 19 -16 27 -30 43 -23 32 16 -5 16 -4 18 4 8 16 -24 24 29
19 138 -3 80 -8 107 -29 147 -23 45 -28 91 -10 79 27 -16 68 110 59 177 -3 15
-1 28 4 28 12 0 10 62 -3 98 -6 18 -15 29 -20 26 -5 -3 -7 1 -4 8 7 17 -50 62
-95 76 -60 18 -92 23 -86 14 3 -5 -1 -9 -9 -9 -8 0 -12 4 -9 9 3 4 -8 8 -25 8
-16 0 -32 -4 -35 -9z m78 -106 c-4 -10 0 -13 14 -10 12 2 23 -3 26 -12 4 -8
13 -13 21 -10 9 4 12 1 9 -7 -3 -8 -1 -17 4 -20 6 -4 6 -21 1 -47 -6 -23 -9
-62 -8 -86 2 -33 -2 -47 -17 -58 -29 -22 -31 -19 -23 33 14 85 11 148 -8 163
-16 13 -17 12 -4 -4 10 -13 12 -35 7 -93 -9 -101 -21 -124 -61 -124 -17 0 -39
6 -49 13 -18 13 -42 92 -24 81 7 -4 9 10 7 40 -2 25 -1 46 3 46 5 0 8 6 8 14
0 8 7 22 16 30 8 9 12 20 9 26 -3 5 -1 10 5 10 6 0 8 5 5 10 -3 6 3 10 14 10
12 0 21 -6 21 -12 0 -7 5 -5 11 5 12 21 21 23 13 2z m-31 -416 c12 -7 25 -17
29 -23 9 -13 11 -178 2 -200 -8 -22 -61 -21 -72 2 -13 25 -35 208 -28 221 9
14 42 14 69 0z"/>
<path d="M3670 2072 c-19 -9 -35 -21 -34 -27 1 -5 -6 -15 -15 -21 -11 -9 -16
-36 -19 -111 l-4 -100 33 4 c102 12 99 10 99 58 0 40 3 45 27 51 16 5 36 2 52
-7 25 -14 26 -18 26 -112 0 -77 3 -98 15 -101 8 -3 2 -4 -13 -2 -18 2 -31 -2
-34 -10 -3 -8 -10 -11 -16 -7 -6 4 -8 0 -5 -9 4 -8 0 -15 -8 -15 -7 0 -10 5
-7 10 11 18 -81 -51 -121 -90 -43 -43 -41 -37 -47 -248 -3 -112 -2 -129 11
-126 8 3 94 7 190 9 117 3 177 8 182 16 6 8 8 8 8 -1 0 -7 10 -13 23 -12 21 0
21 1 2 9 -17 7 -17 9 -2 9 9 1 17 7 17 15 0 8 -8 17 -17 19 -17 4 -17 5 0 6 9
0 17 7 17 15 0 8 -8 17 -17 19 -17 4 -17 5 0 6 9 0 17 4 17 9 0 4 -41 7 -90 7
-49 0 -90 4 -90 8 0 5 -10 8 -22 7 -13 -1 -42 -2 -64 -1 -41 1 -42 2 -46 40
-2 22 0 37 4 35 7 -5 12 19 9 39 -1 5 3 6 9 2 5 -3 13 1 16 9 3 9 10 14 14 11
5 -3 11 -1 15 5 3 6 -4 10 -17 10 -18 0 -20 2 -8 10 13 8 12 10 -5 11 -11 1
-2 5 20 8 22 4 46 4 54 0 15 -7 123 50 116 62 -3 4 4 9 15 12 11 3 20 11 19
19 0 10 -2 10 -6 1 -2 -7 -9 -13 -14 -13 -5 0 0 18 11 39 11 22 17 46 15 54
-3 7 4 22 16 33 13 10 19 14 16 7 -4 -6 -2 -15 4 -18 7 -5 9 24 6 96 -6 122
-7 129 -20 129 -6 0 -8 3 -4 6 8 9 -16 55 -41 77 -25 23 -55 16 -70 -16 -7
-14 -11 -17 -11 -7 -1 13 -2 13 -12 0 -8 -12 -9 -10 -4 9 5 16 4 21 -4 17 -7
-5 -8 -1 -4 10 5 14 8 13 19 -7 13 -24 13 -24 10 6 -3 24 -8 30 -25 28 -11 -2
-21 2 -21 7 0 6 -24 9 -52 9 -45 -1 -49 -2 -23 -9 l30 -8 -30 -1 c-21 -1 -26
-4 -16 -10 11 -7 11 -9 0 -14 -9 -3 -7 -6 6 -6 17 -1 17 -3 5 -11 -12 -8 -12
-10 5 -10 15 0 17 -3 7 -9 -8 -4 -14 -12 -14 -16 0 -4 6 -12 14 -16 9 -6 7 -9
-9 -9 -15 0 -21 5 -17 14 3 8 -1 28 -10 44 -8 16 -12 32 -9 36 4 3 0 6 -8 6
-11 0 -11 2 1 10 27 18 -11 12 -50 -8z"/>
<path d="M4242 2070 c-13 -5 -21 -14 -18 -19 3 -5 -2 -8 -12 -7 -27 2 -62 -78
-62 -142 0 -36 4 -51 11 -46 7 4 7 -1 -1 -16 -6 -12 -9 -24 -6 -27 3 -3 35 -2
71 2 64 6 65 7 63 35 -3 38 18 60 56 60 48 0 56 -15 56 -101 0 -70 -19 -140
-35 -131 -8 4 -65 -31 -65 -40 0 -4 -5 -8 -12 -8 -6 0 -35 -16 -65 -37 -43
-30 -52 -40 -49 -60 3 -15 1 -21 -6 -17 -7 5 -9 1 -5 -9 3 -10 2 -17 -3 -17
-6 0 -10 -20 -10 -45 0 -27 5 -45 11 -45 8 0 8 -4 0 -14 -8 -10 -9 -16 -1 -21
6 -3 8 -11 5 -16 -4 -5 0 -9 7 -9 9 0 9 -3 -2 -10 -13 -8 -13 -10 1 -10 10 0
15 -8 15 -22 -1 -13 4 -22 11 -21 14 3 24 -20 14 -35 -3 -6 -22 -12 -41 -15
-33 -4 -32 -4 8 -5 24 -1 73 -8 110 -16 37 -8 106 -17 154 -19 97 -5 99 -4 88
78 l-5 40 -67 -1 c-37 -1 -65 3 -62 7 3 5 -3 9 -13 9 -10 0 -34 5 -54 10 -33
9 -37 14 -41 48 -4 47 11 64 102 117 120 70 117 66 157 205 16 56 23 217 11
257 -23 77 -90 116 -208 120 -47 2 -95 -2 -108 -7z"/>
<path d="M4929 1915 c-36 -7 -94 -27 -129 -45 -34 -17 -68 -29 -76 -26 -23 9
-17 -38 12 -91 48 -87 90 -134 254 -288 43 -41 94 -101 120 -143 25 -40 58
-85 75 -100 16 -15 74 -73 130 -129 100 -101 274 -228 388 -282 52 -25 68 -24
38 3 -19 17 -19 19 11 84 24 52 28 70 19 84 -15 25 -14 33 4 18 13 -11 14 -10
9 4 -4 9 -14 15 -23 14 -18 -4 -81 55 -81 77 0 7 -5 17 -12 21 -7 5 -9 2 -4
-7 4 -8 0 -5 -8 6 -9 11 -14 25 -11 33 2 7 0 10 -5 7 -6 -3 -10 2 -10 12 0 10
-14 34 -31 53 -19 22 -28 28 -24 16 3 -11 1 -22 -5 -26 -7 -5 -6 -11 5 -20 13
-11 15 -9 15 11 1 20 2 21 10 7 15 -25 2 -50 -20 -38 -10 6 -25 8 -32 5 -8 -3
-23 7 -36 24 -14 19 -28 28 -37 25 -11 -4 -15 1 -16 17 0 13 -3 19 -5 12 -7
-16 -54 5 -48 21 4 11 -39 36 -63 36 -7 0 -13 11 -13 25 0 20 -5 25 -24 25
-13 0 -35 9 -49 20 -14 11 -39 20 -55 20 -39 0 -51 17 -17 26 32 8 27 28 -8
32 -15 2 -37 9 -50 16 -23 12 -34 36 -17 36 6 0 10 -4 10 -10 0 -5 13 -10 28
-10 15 0 33 -5 40 -12 7 -7 12 -9 12 -5 0 4 9 3 19 -2 15 -9 20 -7 24 10 5 18
2 20 -19 16 -18 -3 -24 0 -24 14 0 11 -4 19 -10 19 -5 0 -10 -7 -10 -15 0 -8
-6 -15 -14 -15 -16 0 -31 34 -21 49 3 6 -7 4 -22 -4 -33 -18 -53 -19 -53 -4 0
5 -17 17 -37 26 l-38 17 29 5 c49 10 42 28 -14 36 -59 8 -67 25 -12 25 28 0
39 4 39 15 0 10 -6 14 -14 10 -24 -9 -65 6 -59 21 4 12 -21 34 -38 34 -3 0 -6
-16 -6 -35 0 -26 4 -35 18 -36 11 0 12 -2 4 -6 -15 -6 -43 15 -41 31 1 6 -5
27 -14 46 -9 19 -16 30 -17 23 0 -25 -35 -5 -42 25 -9 34 -37 44 -39 15 0 -11
-3 -13 -6 -5 -2 6 -8 10 -13 7 -4 -3 -11 2 -14 11 -3 8 -2 12 3 9 5 -3 12 -1
15 4 3 4 32 11 63 15 32 4 92 15 133 25 47 12 79 15 86 9 8 -6 22 0 40 17 l29
26 -28 -17 c-28 -17 -29 -17 -53 9 -28 30 -25 30 -115 12z"/>
<path d="M5295 1490 c-3 -5 6 -27 19 -49 15 -23 22 -43 16 -46 -16 -10 -11
-26 8 -24 27 3 57 -13 101 -54 23 -21 46 -35 52 -31 8 4 9 -1 4 -17 -7 -21 -6
-22 9 -10 9 8 19 11 23 7 3 -3 2 -6 -4 -6 -6 0 -9 -9 -6 -20 4 -15 9 -17 23
-10 11 6 18 19 17 29 0 11 -5 17 -11 14 -5 -4 -7 1 -3 10 4 11 1 15 -13 12
-12 -2 -21 3 -25 16 -4 10 -11 19 -16 19 -6 0 -8 4 -5 9 8 12 -27 8 -37 -4 -5
-5 -5 0 -2 13 4 15 2 22 -8 22 -19 0 -50 36 -42 49 3 6 -5 15 -20 21 -14 5
-30 21 -35 35 -10 25 -34 33 -45 15z"/>
<path d="M6480 1468 c-30 -17 -48 -19 -126 -14 l-92 5 -12 -28 c-6 -16 -37
-56 -68 -89 -67 -70 -100 -81 -157 -52 -21 11 -55 20 -76 22 -22 1 -39 6 -39
12 0 5 -3 7 -6 3 -14 -14 21 -115 57 -166 22 -30 39 -60 39 -67 0 -7 19 -50
43 -95 29 -56 50 -84 67 -90 14 -5 37 -16 52 -24 14 -8 44 -15 66 -15 24 0 58
-10 85 -25 25 -14 68 -28 96 -32 31 -3 50 -10 48 -17 -6 -18 -87 -24 -151 -13
-46 9 -61 8 -64 -1 -2 -7 -7 -10 -11 -8 -4 3 -13 1 -21 -4 -11 -7 -12 -13 -2
-36 18 -37 10 -39 -37 -10 -22 14 -45 26 -51 26 -6 0 -9 4 -6 9 3 5 -1 12 -10
15 -23 9 -26 8 -18 -6 5 -8 2 -9 -12 -4 -10 5 -28 11 -38 14 -20 5 -20 5 0 13
18 7 18 8 -3 8 -12 1 -25 6 -29 12 -3 6 -18 -10 -34 -38 -26 -44 -72 -83 -100
-83 -6 0 -26 11 -44 25 -27 20 -38 24 -57 16 -29 -11 -54 -8 -135 13 -111 29
-139 22 -183 -41 -25 -37 -119 -86 -199 -105 -56 -12 -117 -1 -146 28 -13 13
-16 10 -27 -28 -11 -37 -12 -71 -7 -183 0 -11 -9 -68 -20 -127 -14 -76 -18
-117 -12 -145 5 -22 5 -55 0 -78 -5 -22 -10 -46 -10 -52 0 -10 156 -13 745
-13 723 0 745 1 745 19 0 10 -6 33 -14 51 -10 25 -12 78 -8 239 2 113 8 214
13 223 12 22 12 353 0 376 -5 9 -14 40 -20 67 -10 42 -9 62 5 115 17 64 28
233 22 341 l-3 56 -35 -19z m-257 -325 c4 -2 7 -24 7 -48 0 -40 -3 -45 -26
-51 -36 -9 -118 2 -122 16 -3 9 -7 9 -13 -1 -7 -11 -9 -10 -9 4 0 18 -16 24
-22 7 -2 -6 -9 -1 -16 10 -7 12 -8 20 -2 20 5 0 10 -5 10 -11 0 -5 5 -7 10 -4
6 4 8 11 4 16 -3 6 3 13 15 16 12 3 21 11 21 18 0 8 10 16 23 18 23 5 107 -2
120 -10z"/>
<path d="M4657 394 c-32 -17 -240 -36 -367 -33 -92 2 -573 -27 -655 -40 -60
-9 -187 -39 -194 -46 -2 -3 35 -1 82 2 75 5 87 4 93 -11 10 -26 127 -82 146
-70 4 3 8 1 8 -4 0 -5 25 -12 55 -14 49 -4 60 -9 106 -54 46 -44 50 -52 46
-85 l-5 -37 74 -1 74 -1 0 27 c0 16 -4 44 -10 63 -12 43 2 60 20 23 8 -16 28
-47 45 -70 l30 -42 93 -1 c89 0 92 1 92 22 l0 22 16 -22 c14 -20 64 -32 64
-15 0 4 -21 52 -46 107 -61 135 -62 137 -74 169 -5 15 -6 27 -1 27 12 0 82
-81 103 -119 12 -21 24 -31 40 -31 22 1 22 1 -6 25 -16 13 -31 31 -32 40 -1 8
-12 31 -23 50 -11 19 -16 35 -11 35 5 0 12 -10 16 -22 9 -30 275 -288 297
-288 38 0 17 45 -63 133 -44 48 -80 94 -80 101 0 30 52 2 102 -55 28 -33 59
-59 68 -59 19 0 60 43 60 63 0 16 -45 51 -92 70 -25 11 -41 27 -56 61 -27 57
-27 63 0 62 14 -1 24 6 26 17 4 21 -4 21 -41 1z"/>
<path d="M1592 378 c-15 -15 -16 -48 -2 -48 6 0 10 -4 10 -9 0 -5 -8 -8 -17
-6 -10 2 -22 4 -27 4 -6 1 -5 6 2 13 20 20 14 26 -25 23 -43 -4 -62 -26 -33
-39 10 -5 20 -18 22 -30 2 -16 11 -22 38 -24 40 -4 63 -19 56 -37 -5 -15 51
-70 83 -80 23 -7 24 -6 16 26 -14 60 -12 93 7 97 20 4 49 -52 67 -133 25 -105
100 -185 96 -102 -1 35 -15 64 -52 113 -12 17 -23 35 -23 40 0 6 -13 31 -29
56 -16 25 -32 56 -36 69 -9 31 -35 60 -46 53 -5 -3 -2 -19 7 -35 14 -27 14
-32 1 -42 -9 -7 -17 -21 -19 -32 -3 -16 -8 -12 -23 20 -11 22 -18 48 -17 58 2
9 -4 20 -12 23 -9 3 -16 12 -16 20 0 17 -12 18 -28 2z"/>
</g>
</svg>
